<svg xmlns="http://www.w3.org/2000/svg" width="174" height="46" fill="none">
  <path fill="#fff" d="M14.22 7.93c4.73-1.6 5.03-7.46.43-7.46-1.29 0-2.82.91-3.87 2.69L4.52 13.98c-.3.49-.55.92-.92 1.34-1.6-2.2-1.16-5.5 1.1-6.97L3.8 7.2C-1.12 10.31.35 19.24 8.5 19.24c6.94 0 10.19-8.32 5.71-11.31Zm-5.77 9.54c-1.41 0-2.45-.31-3.37-.8.42-.49.8-1.04 1.16-1.65l3.93-6.79.61.06c5.46 1.16 3.32 9.18-2.33 9.18Zm2.52-10.58 1.9-3.24c1.72-2.94 3.87-1.23 2.7.97-.92 1.72-2.21 2.2-4.6 2.27Z"/>
  <path fill="#fff" d="M33.92 15.45c-.37 1.34.37 2.5 1.9 2.5.92 0 2.09-.6 3.25-1.52.13.91.86 1.53 2.03 1.53 1.23 0 2.58-.86 3.93-2.08-.25 1.22.3 2.08 1.47 2.08 1.29 0 2.7-1.17 3.8-2.2-.24 1.22.5 2.2 1.97 2.2 1.9 0 4.11-2.08 6.08-4.29 0-.06-.07-.06-.07-.12 1.3-1.46 2.4-3.05 3.26-4.16-.92 2.39-.43 6.73-2.64 6.73-.8 0-1.1-.86-1.1-.86l-1.48.74s.43 1.9 2.58 1.9c.24 0 .43 0 .67-.07h.06c1.72-.24 3.38-1.28 4.85-2.57.06 1.53 1.23 2.63 3.13 2.63 2.64 0 5.28-2.07 7.18-4.28-.18-.3-.55-.67-.86-.8l-.18.2c-1.66 1.95-3.8 3.48-5.46 3.48-1.41 0-2.27-.92-1.23-2.75l.25-.43c1.47.6 4.3.3 6.07-2.7l.3-.54c1.24-2.14.07-3.73-1.83-3.73-1.9 0-3.38.98-4.36 2.69l-2.27 3.85h-.06l-.19.18c-.86.98-1.9 1.9-2.82 2.51.74-2.2.55-5.63 2.03-8.56l-1.72-.92c-.98 1.35-3.07 4.34-5.16 6.79l.06.06-.06.12c-1.66 1.96-3.31 3.49-4.36 3.49-.49 0-.8-.37-.24-1.29l4.97-8.68h-2.33l-4.11 7.22c-1.78 1.59-3.13 2.5-3.56 2.32-.56-.24 0-1.1.3-1.59l4.55-7.89h-2.34L46.5 13c-.06-.06-.12-.06-.18-.12l-.19.18c-1.65 1.96-3.31 3.49-4.35 3.49-.5 0-.8-.37-.25-1.29l3.74-6.54h-1.35c.06-.98-.92-2.32-2.45-2.32-1.23 0-3 .98-4 2.69l-2.32 4.03a1.28 1.28 0 0 0-.37-.24l-.19.18c-1.65 1.96-3.8 3.49-5.46 3.49-1.4 0-2.27-.92-1.22-2.75l2.39-4.16c1.35-2.32 3.74-1.9 2.33.49l-.3.55h1.9l.3-.55c1.23-2.14.06-3.73-1.84-3.73-1.9 0-3.37.98-4.36 2.69L26 13.06c-.06-.06-.12-.06-.18-.12l-.19.18c-1.65 1.96-3.8 3.49-5.46 3.49-1.4 0-2.27-.92-1.22-2.75l.24-.43c1.47.61 4.3.3 6.08-2.69l.3-.55c1.23-2.14.06-3.73-1.84-3.73-1.9 0-3.37.98-4.36 2.69l-2.45 4.16c-1.47 2.44-.18 4.77 2.58 4.77 2.02 0 4.1-1.23 5.77-2.82-.07 1.6 1.16 2.82 3.13 2.82 1.96-.12 3.86-1.23 5.52-2.63Zm35.6-5.87c1.34-2.33 3.74-1.9 2.33.49l-.31.55c-1.1 1.9-2.64 1.83-3.5 1.53l1.47-2.57Zm-33.27 5.68 3.25-5.62c1.23-2.14 3.75-1.6 2.58.49l-1.84 3.18c-1.41 2.2-2.82 3.24-3.74 3.24-.5-.06-.8-.37-.25-1.29ZM21.4 9.58c1.35-2.33 3.74-1.9 2.33.49l-.3.55c-1.11 1.9-2.64 1.83-3.5 1.53l1.47-2.57ZM100.32 17.95c2.64 0 5.28-2.08 7.18-4.28-.18-.3-.55-.67-.86-.8l-.18.2c-1.66 1.95-3.8 3.48-5.46 3.48-1.41 0-2.27-.92-1.23-2.75l.25-.43c1.47.6 4.3.3 6.07-2.7l.3-.54c1.24-2.14.07-3.73-1.83-3.73-1.9 0-3.38.98-4.36 2.69l-2.27 3.85s-.06 0-.06-.06l-.19.18c-1.65 1.96-3.31 3.49-4.35 3.49-.5 0-.8-.37-.25-1.29l3.38-5.87c.98-1.77.06-3.05-1.23-3.05-.98 0-2.09.55-3.25 1.77l3.74-6.42h-2.4L86.77 13c-.06-.06-.18-.12-.25-.18l-.18.18c-1.66 1.96-3.31 3.49-4.36 3.49-.49 0-.8-.37-.24-1.29l4.97-8.68h1.9l.68-1.1h-1.9l2.2-3.8h-2.33l-2.2 3.8h-2.1l-.67 1.1h2.15l-4.67 8.07c-.98 1.71-.3 3.3 1.6 3.3 1.17 0 2.4-.73 3.68-1.83l-.92 1.59h2.33l3.56-6.12c3.56-4.46 5.16-3.91 4.18-2.2l-3.01 5.26c-.98 1.71-.3 3.3 1.6 3.3 1.4 0 3-1.1 4.47-2.57 0 1.53 1.17 2.63 3.07 2.63Zm1.9-8.37c1.36-2.33 3.75-1.9 2.34.49l-.3.55c-1.11 1.9-2.65 1.83-3.5 1.52l1.47-2.56ZM170.9 12.88l-.18.18c-1.66 1.96-3.32 3.49-4.36 3.49-.5 0-.8-.37-.25-1.29l7.86-13.57h-2.33l-3.44 5.87a2.53 2.53 0 0 0-2.15-1.22c-1.23 0-3 .97-3.99 2.69l-2.27 3.91c-.06 0-.12-.06-.12-.06l-.18.18c-1.66 1.96-3.32 3.49-4.36 3.49-.5 0-.8-.37-.25-1.29l3.38-5.87c.98-1.77.06-3.05-1.23-3.05-.98 0-2.09.55-3.25 1.7l.86-1.52h-2.34l-3.74 6.42c-.06-.06-.12-.12-.25-.12l-.18.18c-1.66 1.96-3.31 3.49-4.36 3.49-.49 0-.8-.37-.24-1.29l3.74-6.54h-1.16c.06-.98-.93-2.32-2.46-2.32-1.23 0-3 .97-3.99 2.69l-2.27 3.85-.12.12c-1.66 1.96-3.32 3.49-4.36 3.49-.49 0-.8-.37-.24-1.29l2.33-4.03c.8-1.4.43-2.2-.3-3.12l-1.3-1.6c-.3-.42-.3-.9.13-1.34l-1.23-1.34c-1.35 1.16-1.41 2.5-.62 3.54l.19.25c-1.05 1.47-2.4 3.42-3.93 5.2l.18.18c-1.9 2.2-3.56 3.6-5.4 4.4l2.95-5.01h-2.27l-.25.43c-1.22 2.14-2.64 3.73-4.48 3.73-1.6 0-1.9-1.6-.49-3.98l.68-1.16c.43.06.86.12 1.35.12 8.28 0 12.27-11.07 4.97-11.07-1.29 0-2.83.92-3.87 2.7l-3.62 6.23a3.8 3.8 0 0 1-2.09-3.3c0-1.1.5-2.14 1.48-2.93l-.74-1.35a5.24 5.24 0 0 0-2.4 4.34c0 1.84 1.05 3.6 2.95 4.59l-.67 1.22c-1.66 2.81-1.35 5.93 1.96 5.93.98 0 1.84-.3 2.52-.73l-.62 1.04c-3.13.98-5.09 2.2-5.09 3.97 0 2.2 3.44 2.7 5.1-.18l1.77-3.06c2.4-.73 4.8-2.38 7.37-5.38-.06-.06-.06-.12-.12-.24 1.04-1.23 1.9-2.39 3.68-4.77l.3.36c.31.37.44.86.13 1.35l-2.46 4.28c-.98 1.71-.3 3.3 1.6 3.3 1.16 0 2.45-.73 3.68-1.83 0 1.04.68 1.83 2.03 1.83.92 0 2.08-.61 3.25-1.53.12.92.86 1.53 2.02 1.53 1.1 0 2.34-.67 3.5-1.71l-.86 1.47h2.34l3.56-6.18c3.55-4.46 5.15-3.85 4.1-2.14l-3 5.26c-.98 1.71-.3 3.3 1.6 3.3 1.22 0 2.57-.86 3.92-2.02-.12 1.16.62 2.02 2.03 2.02.92 0 2.09-.61 3.25-1.53.12.92.86 1.53 2.03 1.53 1.9 0 4.1-2.08 6.07-4.28-.24-.12-.67-.49-.98-.61ZM123.1 4.2c.67-1.17 1.47-1.72 2.08-1.72 3.68 0 1.1 7.53-4.97 7.53h-.5l3.38-5.81Zm-4.98 17.48c-.49.86-1.29.74-1.29.13s.55-1.29 2.33-1.96l-1.04 1.83Zm24.37-8.43c-1.42 2.2-2.83 3.24-3.75 3.24-.49 0-.8-.37-.24-1.29l3.25-5.62c1.23-2.14 3.74-1.6 2.58.49l-1.84 3.18Zm22.52-.13c-1.41 2.33-2.82 3.37-3.8 3.37-.5 0-.8-.37-.25-1.29l3.25-5.62c1.23-2.14 3.74-1.6 2.58.49L165 13.12ZM93.14 34.9l-.18.18c-1.66 1.95-3.32 3.48-4.36 3.48-.49 0-.8-.37-.24-1.28l3.37-5.87c.98-1.78.06-3.06-1.23-3.06-.98 0-2.08.55-3.25 1.71l.86-1.53h-2.33l-3.75 6.48c-.12-.06-.18-.12-.3-.18l-.19.18a4.79 4.79 0 0 1-3.5 1.72l2.21-3.8c1.42-2.44.13-4.7-2.08-4.7-1.78 0-3.2.73-4.54 3.05l-1.17 1.96-.98 1.71c-.06-.06-.12-.06-.19-.12l-.18.18c-1.9 2.2-3.56 3.61-5.4 4.4l6.38-10.88h-2.33l-4.11 7.16c-1.78 1.65-3.2 2.57-3.62 2.38-.55-.24 0-1.1.3-1.59l4.55-7.89h-2.34l-3.74 6.42c-.06-.06-.12-.06-.18-.12l-.19.19c-1.66 1.95-3.31 3.48-4.36 3.48-.49 0-.8-.37-.24-1.28l3.37-5.87c.99-1.78.07-3.06-1.22-3.06-.98 0-2.09.55-3.26 1.71l.86-1.53h-2.33l-3.74 6.42c-.06-.06-.12-.12-.25-.12l-.18.18c-1.66 1.96-3.32 3.49-4.36 3.49-.49 0-.8-.37-.24-1.28l3.74-6.55h-1.35c.06-.98-.92-2.32-2.46-2.32-1.22 0-3 .98-3.98 2.69l-2.4 4.16c-.18-.12-.37-.25-.49-.3l-.18.18c-1.66 1.95-3.75 3.48-6.02 3.48-1.6 0-2.58-1.59-1.16-3.97l.67-1.17c.43.07.86.13 1.35.13 2.46 0 5.28-1.29 7.12-4.47.68-1.16.92-2.2.92-3.12 0-2.07-1.35-3.48-3.07-3.48-1.29 0-2.82.92-3.86 2.69l-3.63 6.24a3.8 3.8 0 0 1-2.08-3.3c0-1.1.49-2.15 1.47-2.94l-.74-1.35a5.23 5.23 0 0 0-2.39 4.35c0 1.83 1.04 3.6 2.95 4.58l-.68 1.23c-1.65 2.8-.67 5.93 2.64 5.93 2.58 0 4.54-1.17 6.14-2.7-.5 1.47.24 2.7 1.9 2.7.92 0 2.09-.61 3.25-1.53.13.92.86 1.53 2.03 1.53 1.1 0 2.33-.68 3.5-1.72l-.86 1.47h2.33l3.56-6.17c3.56-4.47 5.15-3.86 4.11-2.14l-3 5.25c-.99 1.72-.31 3.3 1.59 3.3 1.23 0 2.64-.85 3.99-2.07-.3 1.28.3 2.08 1.47 2.08 1.1 0 2.4-.92 3.44-1.9L63 40.21c-3.13.92-5.16 2.2-5.16 3.98 0 2.2 3.44 2.69 5.1-.19l1.78-3.05c1.96-.62 3.86-1.84 5.89-3.8-.3 3.25 3.99 3.98 6.63.68h.49c.86 0 2.02-.3 3.07-.92l-1.54 2.7h2.33l3.56-6.19c3.56-4.46 5.16-3.85 4.12-2.14l-3.01 5.26c-.98 1.72-.3 3.3 1.6 3.3 1.9 0 4.1-2.07 6.07-4.27-.06-.19-.49-.56-.8-.68Zm-57.93-8.7c.67-1.15 1.47-1.7 2.09-1.7.85 0 1.28.55 1.28 1.4 0 2.14-2.64 6.06-6.26 6.06h-.49l3.38-5.75Zm8.22 9.06c-1.4 2.2-2.82 3.24-3.74 3.24-.5 0-.8-.37-.25-1.28l3.26-5.63c1.22-2.14 3.74-1.59 2.57.49l-1.84 3.18Zm17.68 8.44c-.5.85-1.3.73-1.3.12s.56-1.28 2.34-1.96l-1.04 1.84ZM76.8 35h-.11c-.74 0-1.35.62-1.35 1.41 0 .3.06.55.24.8v.06c-1.1 1.9-3.74 1.53-2.4-.92l1.79-3.06 1.1-1.9c1.66-2.74 3.87-1.64 2.46.74l-1.72 2.87ZM147.09 35.69a1.37 1.37 0 0 0-.86-.8l-.19.19c-.85.98-1.9 1.9-2.82 2.5.74-2.2.55-5.62 2.03-8.56l-1.72-.91c-.98 1.34-3.07 4.34-5.16 6.78l-.18.19c-1.66 1.95-3.31 3.48-4.36 3.48-.49 0-.98-.49-.98-1.59V36c1.66.19 3.38-.85 4.48-2.75l.61-1.1c2.15-3.73-1.35-4.95-3.74-2.75l3.31-5.75h-2.33l-6.63 11.5c-.12-.12-.3-.25-.43-.3l-.18.18c-1.66 1.95-3.8 3.48-5.46 3.48-1.41 0-2.27-.92-1.23-2.75l2.4-4.16c1.34-2.32 3.74-1.9 2.33.5l-.31.54h1.9l.3-.55c1.24-2.14.07-3.73-1.83-3.73-1.9 0-3.38.98-4.36 2.7l-2.27 3.9c-.06 0-.12-.06-.12-.06l-.19.19c-1.65 1.95-3.31 3.48-4.35 3.48-.5 0-.8-.36-.25-1.28l4.97-8.68h-2.33l-4.11 7.21c-1.78 1.6-3.13 2.5-3.56 2.32-.55-.24 0-1.1.3-1.59l4.55-7.88h-2.34l-4.54 7.76c-.49.43-1.04.86-1.47 1.23.74-2.2.55-5.63 2.02-8.57l-1.71-.91c-.99 1.34-6.33 8.44-8.47 10.88.18.3.55.55.86.8 1.35-1.53 5.77-7.22 6.56-8.32-.92 2.39-.43 6.73-2.64 6.73-.8 0-1.1-.86-1.1-.86l-1.47.73s.43 1.9 2.57 1.9c.25 0 .43 0 .68-.06h.06a8.04 8.04 0 0 0 3.44-1.47c0 .92.55 1.53 1.53 1.53 1.29 0 2.7-1.16 3.8-2.2-.24 1.22.5 2.2 1.97 2.2s3.07-1.16 4.6-2.7c0 1.54 1.23 2.7 3.13 2.7s3.75-1.04 5.4-2.45l-1.28 2.27h2.33l2.64-4.59v1.83c0 1.96.36 3 2.27 3 1.9 0 4.1-2.08 6.07-4.28 1.35-1.53 2.46-3.12 3.32-4.22-.92 2.39-.43 6.73-2.64 6.73-.8 0-1.1-.86-1.1-.86l-1.48.74s.43 1.9 2.58 1.9c.24 0 .43 0 .67-.07h.06c2.34-.43 4.73-2.32 6.45-4.34Zm-15.47-1.84.68-1.16c2.7-3.73 4.54-2.69 3.68-1.28l-1.1 1.9c-.68 1.22-2.7 2.07-3.26.54ZM147.03 37.28c-.74 0-1.35.61-1.35 1.34 0 .74.55 1.35 1.35 1.35.73 0 1.35-.55 1.35-1.35 0-.73-.62-1.34-1.35-1.34ZM147.15 36.36h2.33l7.3-12.66h-2.33l-7.3 12.66Z"/>
</svg>
